<svg width="163" height="28" viewBox="0 0 163 28" fill="none" xmlns="http://www.w3.org/2000/svg">
    <g clip-path="url(#clip0_47_9199)">
        <path
            d="M2.41191 22.6678V15.9466H0.636719V12.4841H2.41191V8.88586H6.60135V12.4841H10.0807V15.9466H6.60135V21.9889C6.60135 22.9394 7.0274 23.3468 7.9505 23.3468C8.73158 23.3468 9.44166 23.1431 10.0097 22.8715V26.1303C9.15763 26.6056 8.09251 26.945 6.67236 26.945C4.11609 26.945 2.41191 25.9945 2.41191 22.6678Z"
            fill="#333333" />
        <path
            d="M12.0659 19.6131C12.0659 15.5396 15.1192 12.2129 19.3797 12.2129C24.3502 12.2129 26.6225 15.879 26.6225 19.9525C26.6225 20.292 26.6225 20.6314 26.5515 21.0388H16.2554C16.6814 22.8719 18.0306 23.8223 19.8768 23.8223C21.2969 23.8223 22.291 23.415 23.4982 22.3966L25.9124 24.4334C24.4923 26.0628 22.504 27.0811 19.8768 27.0811C15.3323 27.0132 12.0659 24.026 12.0659 19.6131ZM22.504 18.5268C22.22 16.6937 21.1549 15.5396 19.3797 15.5396C17.6045 15.5396 16.4684 16.7616 16.1844 18.5268H22.504Z"
            fill="#333333" />
        <path
            d="M32.8881 19.4764L27.8466 12.4835H32.391L35.1603 16.6249L37.9296 12.4835H42.3321L37.2906 19.4085L42.5451 26.6729H38.0006L35.0183 22.2599L32.036 26.6729H27.6335L32.8881 19.4764Z"
            fill="#333333" />
        <path
            d="M45.1116 12.4845H49.301V14.5212C50.2951 13.2992 51.5023 12.2129 53.6325 12.2129C56.8279 12.2129 58.6741 14.2496 58.6741 17.5084V26.6738H54.4846V18.7984C54.4846 16.8974 53.5615 15.879 51.9283 15.879C50.2951 15.879 49.301 16.8295 49.301 18.7984V26.7417H45.1116V12.4845Z"
            fill="#333333" />
        <path
            d="M61.6343 19.6131C61.6343 15.5396 65.0426 12.2129 69.7291 12.2129C74.3446 12.2129 77.753 15.4717 77.753 19.6131C77.753 23.6866 74.3446 27.0133 69.6581 27.0133C65.0426 27.0133 61.6343 23.7545 61.6343 19.6131ZM73.5636 19.6131C73.5636 17.5084 72.0014 15.6754 69.6581 15.6754C67.2439 15.6754 65.8237 17.4405 65.8237 19.6131C65.8237 21.7177 67.3859 23.5508 69.7291 23.5508C72.1434 23.5508 73.5636 21.7856 73.5636 19.6131Z"
            fill="#333333" />
        <path
            d="M80.7358 12.4845H84.9253V14.5212C85.9194 13.2992 87.1975 12.2129 89.3277 12.2129C91.2449 12.2129 92.7361 13.0276 93.5172 14.4533C94.7953 13.0276 96.3575 12.2129 98.4167 12.2129C101.541 12.2129 103.458 14.046 103.458 17.4405V26.6738H99.2688V18.7984C99.2688 16.8974 98.4167 15.879 96.7835 15.879C95.2214 15.879 94.2273 16.8295 94.2273 18.7984V26.7417H90.0378V18.7984C90.0378 16.8974 89.1857 15.879 87.5526 15.879C85.9904 15.879 84.9963 16.8295 84.9963 18.7984V26.7417H80.8068V12.4845H80.7358Z"
            fill="#333333" />
        <path
            d="M106.141 22.5918C106.141 19.4688 108.626 18.0431 112.106 18.0431C113.597 18.0431 114.662 18.3147 115.727 18.6541V18.3826C115.727 16.6853 114.662 15.8027 112.532 15.8027C110.899 15.8027 109.763 16.0742 108.413 16.5495L107.348 13.4944C108.981 12.8155 110.615 12.3402 113.1 12.3402C115.372 12.3402 117.076 12.9512 118.141 13.9017C119.278 14.988 119.775 16.5495 119.775 18.4505V26.6653H115.727V25.1038C114.733 26.1901 113.313 26.9369 111.254 26.9369C108.484 26.9369 106.141 25.4433 106.141 22.5918ZM115.869 21.7093V20.9624C115.159 20.623 114.236 20.4193 113.171 20.4193C111.396 20.4193 110.26 21.0982 110.26 22.4561C110.26 23.5423 111.183 24.1534 112.532 24.1534C114.52 24.1534 115.869 23.135 115.869 21.7093Z"
            fill="#333333" />
        <path
            d="M123.492 12.4782H127.681V15.3297C128.533 13.3608 129.953 12.0709 132.439 12.2067V16.416H132.226C129.456 16.416 127.681 18.0454 127.681 21.4399V26.6676H123.492V12.4782Z"
            fill="#333333" />
        <path
            d="M135.773 22.668V15.9467H133.998V12.4842H135.773V8.88599H139.962V12.4842H143.442V15.9467H139.962V21.989C139.962 22.9395 140.388 23.3469 141.311 23.3469C142.092 23.3469 142.802 23.1432 143.371 22.8716V26.1304C142.518 26.6057 141.453 26.9451 140.033 26.9451C137.477 26.9451 135.773 25.9946 135.773 22.668Z"
            fill="#333333" />
        <path
            d="M162.691 11.6745L160.561 15.2659L156.301 12.8012V17.7306H152.04V12.8012L147.78 15.2659L145.649 11.6745L149.981 9.20979L145.72 6.74509L147.78 3.15367L152.04 5.61837V0.688965H156.301V5.61837L160.561 3.15367L162.62 6.74509L158.36 9.20979L162.691 11.6745Z"
            fill="#333333" />
    </g>
    <defs>
        <clipPath id="clip0_47_9199">
            <rect width="163" height="26.895" fill="white" transform="translate(0 0.402344)" />
        </clipPath>
    </defs>
</svg>